<?xml version="1.0" encoding="UTF-8"?>
<svg id="Capa_2" xmlns="http://www.w3.org/2000/svg" viewBox="0 0 64 39.3">
  <defs>
    <style>
      .cls-1 {
        fill: #fff;
      }
    </style>
  </defs>
  <g id="logo">
    <path class="cls-1" d="M63.32,15.39c-4.61-.55-8.68-.37-12.1.53,0-.04,0-.07,0-.11-.04-3.85-.93-7.91-2.63-12.07-.08-.19-.23-.35-.43-.42-.19-.08-.41-.07-.6,0-3.47,1.53-6.4,3.34-8.72,5.39-.05-.09-.09-.18-.14-.28-1.43-2.76-3.54-5.52-6.26-8.22-.15-.15-.35-.23-.56-.22-.21,0-.41.09-.55.24-2.67,2.85-4.7,5.7-6.09,8.56-2.34-2.08-5.3-3.92-8.82-5.47-.19-.08-.41-.09-.6,0-.19.08-.35.23-.43.42-1.7,4.16-2.59,8.22-2.63,12.07,0,.04,0,.07,0,.11-3.42-.9-7.49-1.08-12.1-.53C.29,15.43,0,15.77,0,16.17c.07,4.69.81,8.82,2.21,12.29,1.51,3.73,3.74,6.56,6.63,8.4,2.56,1.63,5.6,2.45,9.05,2.45.23,0,.45,0,.68-.01,3.9-.12,8.33-1.27,13.16-3.43h.53c4.83,2.15,9.26,3.31,13.16,3.43.23,0,.46.01.68.01,3.45,0,6.49-.82,9.05-2.45,2.89-1.84,5.12-4.67,6.63-8.4,1.4-3.46,2.15-7.6,2.21-12.29,0-.39-.29-.73-.68-.78M47.46,5.07c1.44,3.72,2.18,7.33,2.22,10.75.04,3.7-.75,6.97-2.36,9.74-1.34,2.3-3.22,4.2-5.59,5.64-2.08,1.26-4.53,2.17-7.31,2.72,2.11-2.58,3.73-5.16,4.83-7.69,1.33-3.05,1.95-6.1,1.85-9.09-.08-2.33-.61-4.67-1.57-6.96,2.09-1.92,4.76-3.64,7.94-5.12M31.93,1.89c2.34,2.4,4.15,4.84,5.41,7.27.14.27.27.54.4.81-.04.24.03.49.21.67.04.04.09.08.14.11.9,2.14,1.39,4.3,1.47,6.46.1,2.76-.48,5.59-1.72,8.42-1.24,2.84-3.18,5.77-5.77,8.69h-.15c-2.45-2.71-4.31-5.44-5.54-8.13-1.25-2.74-1.87-5.52-1.84-8.25.03-2.73.7-5.51,2-8.26,1.22-2.58,3.04-5.2,5.39-7.8M14.32,15.83c.04-3.42.78-7.04,2.22-10.75,3.24,1.5,5.94,3.25,8.05,5.22-3.21,7.88-1.57,15.79,4.94,23.63-2.76-.55-5.19-1.46-7.25-2.71-2.38-1.44-4.26-3.34-5.59-5.64-1.61-2.77-2.4-6.04-2.36-9.74M18.53,37.75c-3.41.11-6.39-.64-8.85-2.2-2.61-1.66-4.64-4.25-6.03-7.68-1.26-3.11-1.96-6.82-2.09-11.03,4.33-.45,8.11-.22,11.26.69.19,3.28,1.04,6.24,2.53,8.81,1.47,2.53,3.53,4.61,6.13,6.19,2.14,1.3,4.64,2.25,7.45,2.84-3.8,1.48-7.28,2.28-10.4,2.38M60.36,27.87c-1.39,3.43-3.42,6.01-6.03,7.68-2.46,1.57-5.44,2.31-8.85,2.2-3.11-.1-6.6-.9-10.4-2.38,2.81-.59,5.31-1.54,7.45-2.84,2.6-1.58,4.66-3.66,6.13-6.19,1.49-2.57,2.34-5.52,2.53-8.81,3.15-.91,6.93-1.14,11.26-.69-.12,4.21-.82,7.91-2.09,11.03"/>
  </g>
</svg>